<svg xmlns="http://www.w3.org/2000/svg" xmlns:xlink="http://www.w3.org/1999/xlink" viewBox="0 0 429.29 226.69"><defs><style>.cls-1{fill:none;}.cls-2{clip-path:url(#clip-path);}.cls-3{fill:url(#linear-gradient);}.cls-4{fill:#fff;}.cls-5{fill:#231f20;}</style><clipPath id="clip-path" transform="translate(0 38.28)"><rect class="cls-1" x="221.71" width="174.67" height="150.12"/></clipPath><linearGradient id="linear-gradient" x1="-81.64" y1="508.29" x2="-80.64" y2="508.29" gradientTransform="matrix(212.04, 0, 0, -212.04, 17514.75, 107854.95)" gradientUnits="userSpaceOnUse"><stop offset="0" stop-color="#65a6d9"/><stop offset="1" stop-color="#591b4a"/></linearGradient></defs><g id="Camada_2" data-name="Camada 2"><g id="Layer_1" data-name="Layer 1"><g class="cls-2"><rect class="cls-3" x="207.07" y="-17.72" width="203.96" height="185.57" transform="translate(-8.96 109.73) rotate(-13)"/></g><path class="cls-4" d="M316.18,67.31a42.63,42.63,0,0,1,4-11.73,29.58,29.58,0,0,1,7.77-9.65q4.93-4,12.71-4a19.14,19.14,0,0,1,12.18,3.81A27.3,27.3,0,0,1,360.42,55a42.13,42.13,0,0,1,3.89,11.66,62.32,62.32,0,0,1,1.12,11,45.7,45.7,0,0,1-2,13.68A39.92,39.92,0,0,1,358,102.66a27.64,27.64,0,0,1-8.07,7.7A18.61,18.61,0,0,1,340,113.2a18.17,18.17,0,0,1-9.87-2.92,27.43,27.43,0,0,1-8-7.77,38.28,38.28,0,0,1-5.23-11.28,48.38,48.38,0,0,1-1.87-13.61,58.77,58.77,0,0,1,1.12-10.31M302.8,99.15a47.07,47.07,0,0,0,8.59,16,36.54,36.54,0,0,0,12.86,9.79A37.54,37.54,0,0,0,340,128.3a38.74,38.74,0,0,0,16.14-3.37,36.25,36.25,0,0,0,12.93-9.79,47.1,47.1,0,0,0,8.6-15.84A70.35,70.35,0,0,0,381,77.92a67.48,67.48,0,0,0-2.84-21.22,48.11,48.11,0,0,0-8.37-16,36.73,36.73,0,0,0-12.86-10.09,38.17,38.17,0,0,0-16.44-3.51,40.46,40.46,0,0,0-15.62,3.06,35.54,35.54,0,0,0-13,9.35A46,46,0,0,0,303,55.2a66.71,66.71,0,0,0-3.29,22,70.51,70.51,0,0,0,3.14,22" transform="translate(0 38.28)"/><path class="cls-4" d="M277.88,42.09V126h15.54V27.3H269.35V42.09Zm-32.24,0V126h15.54V27.3H237.12V42.09Z" transform="translate(0 38.28)"/><rect class="cls-5" x="221.71" y="191.24" width="174.67" height="22.68"/><path class="cls-5" d="M171.52,146a12.31,12.31,0,1,1,3.52-8.63,11.74,11.74,0,0,1-3.52,8.63M144.31,30.25h-4.46a7.37,7.37,0,0,0-6.77,3.5q-2.15,3.53-2.15,10.86v64.05q0,19.5-11.23,30.63t-34,11.12c-14.1,0-25.31-3.79-33.71-11.37s-12.6-18-12.6-31.23V30.25H26v-3.1H80v3.1H66.1v75.32q0,18.83,6.28,28.75c4.18,6.62,12.13,11,23.75,9.94,9.18-.83,14.43-3,20.25-8.92s8.74-14.49,8.74-25.67V44.61c0-5.15-.81-8.81-2.5-11s-2.94-3.31-7.3-3.31h-5v-3.1h34ZM0,175.52H204.2V0H0Z" transform="translate(0 38.28)"/><path class="cls-4" d="M378.8,159.44V171.2H381V157.37h-3.37v2.07Zm-6.12,7.86a13.92,13.92,0,0,0,1.21-1.81,10.77,10.77,0,0,0,.82-1.85,6.41,6.41,0,0,0,.3-1.95,4.67,4.67,0,0,0-.32-1.7,4.46,4.46,0,0,0-.93-1.44,4.32,4.32,0,0,0-1.44-1,4.61,4.61,0,0,0-1.88-.37,4.88,4.88,0,0,0-2,.37,4.35,4.35,0,0,0-1.44,1,4.19,4.19,0,0,0-.9,1.41,4.57,4.57,0,0,0-.3,1.63,3.85,3.85,0,0,0,.12.9,5,5,0,0,0,.33,1,4.71,4.71,0,0,0,.54.93,2,2,0,0,0,.73.64l1.28-1.32a2.81,2.81,0,0,1-.62-.93,3.17,3.17,0,0,1-.22-1.23,2.71,2.71,0,0,1,.1-.67,2,2,0,0,1,.39-.75,2.37,2.37,0,0,1,2-.88,2.13,2.13,0,0,1,.78.16,2.68,2.68,0,0,1,.77.5,2.56,2.56,0,0,1,.6.82,2.73,2.73,0,0,1,.24,1.18,4.38,4.38,0,0,1-.58,2.09,13.31,13.31,0,0,1-1.52,2.25,31.88,31.88,0,0,1-2.15,2.38l-2.52,2.54h9.68v-2.09h-4.52c.51-.6,1-1.2,1.46-1.81m-17.74-4.46a6.19,6.19,0,0,1,.56-1.65,4.17,4.17,0,0,1,1.09-1.35,2.75,2.75,0,0,1,1.78-.56,2.68,2.68,0,0,1,1.71.53,4,4,0,0,1,1.07,1.3,6.08,6.08,0,0,1,.54,1.64,8.31,8.31,0,0,1,.16,1.54,6.63,6.63,0,0,1-.28,1.91,5.8,5.8,0,0,1-.77,1.6,4,4,0,0,1-1.13,1.08,2.65,2.65,0,0,1-1.38.39,2.58,2.58,0,0,1-1.39-.4,4,4,0,0,1-1.12-1.09,5.53,5.53,0,0,1-.73-1.59,6.56,6.56,0,0,1-.27-1.9,8.84,8.84,0,0,1,.16-1.45m-1.87,4.46a6.51,6.51,0,0,0,1.2,2.25,5.08,5.08,0,0,0,1.8,1.37,5.39,5.39,0,0,0,2.22.47,5.51,5.51,0,0,0,2.26-.47,5,5,0,0,0,1.81-1.37,6.74,6.74,0,0,0,1.21-2.22,10.16,10.16,0,0,0,.46-3,9.51,9.51,0,0,0-.4-3,6.7,6.7,0,0,0-1.17-2.24,5.17,5.17,0,0,0-1.81-1.42,5.45,5.45,0,0,0-2.3-.49,5.78,5.78,0,0,0-2.19.43,5.07,5.07,0,0,0-1.83,1.31,6.42,6.42,0,0,0-1.24,2.2,9.29,9.29,0,0,0-.46,3.08,9.66,9.66,0,0,0,.44,3.08m-5.26,0a14.91,14.91,0,0,0,1.2-1.81,10.05,10.05,0,0,0,.82-1.85,6.41,6.41,0,0,0,.3-1.95,4.67,4.67,0,0,0-.32-1.7,4.46,4.46,0,0,0-.93-1.44,4.32,4.32,0,0,0-1.44-1,4.61,4.61,0,0,0-1.88-.37,4.91,4.91,0,0,0-2,.37,4.35,4.35,0,0,0-1.44,1,4,4,0,0,0-.89,1.41,4.37,4.37,0,0,0-.31,1.63,3.85,3.85,0,0,0,.12.9,5.67,5.67,0,0,0,.33,1,4.71,4.71,0,0,0,.54.93,2,2,0,0,0,.73.64l1.28-1.32a2.81,2.81,0,0,1-.62-.93,3.17,3.17,0,0,1-.22-1.23,2.8,2.8,0,0,1,.11-.67,2,2,0,0,1,.38-.75,2.37,2.37,0,0,1,2-.88,2.13,2.13,0,0,1,.78.16,2.68,2.68,0,0,1,1.37,1.32,2.73,2.73,0,0,1,.24,1.18,4.48,4.48,0,0,1-.57,2.09,13.93,13.93,0,0,1-1.52,2.25c-.63.77-1.35,1.56-2.16,2.38l-2.52,2.54h9.69v-2.09h-4.53c.52-.6,1-1.2,1.47-1.81m-10.93,3.56a1.32,1.32,0,0,0,.89.34,1.28,1.28,0,0,0,.84-.34,1.17,1.17,0,0,0,.41-1,1.18,1.18,0,0,0-.41-.92,1.24,1.24,0,0,0-.84-.38,1.28,1.28,0,0,0-.89.38,1.18,1.18,0,0,0-.41.92,1.17,1.17,0,0,0,.41,1m-5.74-11.42V171.2h2.18V157.37H330v2.07Zm-6.49,0V171.2h2.18V157.37h-3.38v2.07Zm-3.58.75a4.42,4.42,0,0,0-1.14-1.46,4.83,4.83,0,0,0-1.52-.84,5.16,5.16,0,0,0-1.6-.27A4.54,4.54,0,0,0,315,158a4.82,4.82,0,0,0-1.51,1,5,5,0,0,0-1,1.51,4.54,4.54,0,0,0-.38,1.83,4.43,4.43,0,0,0,.38,1.82,4.73,4.73,0,0,0,1,1.47,4.67,4.67,0,0,0,1.52,1,4.75,4.75,0,0,0,1.84.36.93.93,0,0,0,.75-.34,6,6,0,0,1-.73.64c-.34.26-.71.53-1.13.82l-1.27.86-1.14.76.66.83c.21.28.44.55.68.83l1.28-.91c.49-.34,1-.72,1.49-1.14a17.52,17.52,0,0,0,1.5-1.39,10.68,10.68,0,0,0,1.31-1.62,8.4,8.4,0,0,0,.94-1.87,6.41,6.41,0,0,0,.35-2.12,4.65,4.65,0,0,0-.45-2.13m-2,3.13a2.45,2.45,0,0,1-.52.81,2.52,2.52,0,0,1-.79.54,2.25,2.25,0,0,1-1,.2,2.37,2.37,0,0,1-1-.2,2.66,2.66,0,0,1-.82-.54,2.73,2.73,0,0,1-.56-.81,2.39,2.39,0,0,1-.21-1,2.42,2.42,0,0,1,.21-1,3.16,3.16,0,0,1,.56-.84,2.75,2.75,0,0,1,.82-.57,2.38,2.38,0,0,1,1-.21,2.25,2.25,0,0,1,1,.21,2.61,2.61,0,0,1,.79.57,2.81,2.81,0,0,1,.52.84,2.58,2.58,0,0,1,.19,1,2.54,2.54,0,0,1-.19,1M307,159.44V171.2h2.18V157.37h-3.38v2.07Z" transform="translate(0 38.28)"/></g></g></svg>



